<?xml version="1.0" encoding="UTF-8" standalone="no"?>
<svg
   xmlns:dc="http://purl.org/dc/elements/1.1/"
   xmlns:cc="http://creativecommons.org/ns#"
   xmlns:rdf="http://www.w3.org/1999/02/22-rdf-syntax-ns#"
   xmlns:svg="http://www.w3.org/2000/svg"
   xmlns="http://www.w3.org/2000/svg"
   xmlns:sodipodi="http://sodipodi.sourceforge.net/DTD/sodipodi-0.dtd"
   xmlns:inkscape="http://www.inkscape.org/namespaces/inkscape"
   viewBox="0 0 500.372 142.576"
   version="1.1"
   id="svg192"
   sodipodi:docname="logo-ufpe-sti-cstic-colorido.svg"
   inkscape:version="1.0.1 (1.0.1+r73)">
  <metadata
     id="metadata196">
    <rdf:RDF>
      <cc:Work
         rdf:about="">
        <dc:format>image/svg+xml</dc:format>
        <dc:type
           rdf:resource="http://purl.org/dc/dcmitype/StillImage" />
      </cc:Work>
    </rdf:RDF>
  </metadata>
  <sodipodi:namedview
     pagecolor="#ffffff"
     bordercolor="#666666"
     borderopacity="1"
     objecttolerance="10"
     gridtolerance="10"
     guidetolerance="10"
     inkscape:pageopacity="0"
     inkscape:pageshadow="2"
     inkscape:window-width="1920"
     inkscape:window-height="1028"
     id="namedview194"
     showgrid="false"
     inkscape:zoom="1.3170201"
     inkscape:cx="190.65972"
     inkscape:cy="-67.207545"
     inkscape:window-x="0"
     inkscape:window-y="0"
     inkscape:window-maximized="1"
     inkscape:current-layer="svg192" />
  <defs
     id="defs4">
    <style
       id="style2">.cls-1,.cls-3{fill:#fff;}.cls-2{opacity:0.25;}.cls-3{fill-rule:evenodd;}</style>
    <style
       id="style2256">.cls-1,.cls-2{fill-rule:evenodd;}.cls-2{fill:#900;}.cls-3{fill:#595959;}.cls-4{fill:#872367;}.cls-5{fill:#f7941d;}.cls-6{fill:#b30638;}</style>
  </defs>
  <title
     id="title6">Ativo 5</title>
  <g
     id="g2996"
     style="fill:#595959;fill-opacity:1">
    <path
       class="cls-1"
       d="m 339.849,48.183 -1.183,2.379 a 4.248,4.248 0 0 0 -3.1,-0.963 4,4 0 0 0 -3.318,1.7 6.887,6.887 0 0 0 -1.294,4.3 6.5,6.5 0 0 0 1.2,4.126 3.866,3.866 0 0 0 3.2,1.526 4.313,4.313 0 0 0 3.584,-1.637 l 1.339,2.323 a 6.74,6.74 0 0 1 -5.154,1.87 6.52,6.52 0 0 1 -5.277,-2.235 9.171,9.171 0 0 1 -1.881,-6.095 8.879,8.879 0 0 1 2.086,-6.012 6.732,6.732 0 0 1 5.337,-2.417 7.786,7.786 0 0 1 4.461,1.135 z"
       id="path8"
       style="fill:#595959;fill-opacity:1" />
    <path
       class="cls-1"
       d="m 345.479,49.875 v 3.794 h 5.355 v 2.445 h -5.355 v 4.856 h 7.346 v 2.555 H 342.6 V 47.32 h 10.342 v 2.555 z"
       id="path10"
       style="fill:#595959;fill-opacity:1" />
    <path
       class="cls-1"
       d="m 366.119,63.747 -7.865,-10.254 v 10.043 h -2.765 V 47.32 h 1.382 l 7.655,9.778 V 47.32 h 2.765 v 16.427 z"
       id="path12"
       style="fill:#595959;fill-opacity:1" />
    <path
       class="cls-1"
       d="m 377.2,49.875 v 13.65 h -2.877 v -13.65 h -5.154 V 47.32 h 13.418 v 2.555 z"
       id="path14"
       style="fill:#595959;fill-opacity:1" />
    <path
       class="cls-1"
       d="m 393.608,63.525 -4.325,-6.692 q -0.652,-0.011 -1.825,-0.078 v 6.77 h -2.986 V 47.32 q 0.244,0 1.869,-0.083 1.625,-0.083 2.622,-0.083 6.173,0 6.172,4.779 a 4.387,4.387 0 0 1 -0.851,2.621 4.6,4.6 0 0 1 -2.147,1.67 l 4.79,7.3 z m -6.15,-13.705 v 4.5 c 0.532,0.044 0.936,0.066 1.218,0.066 a 5.246,5.246 0 0 0 2.638,-0.508 2.132,2.132 0 0 0 0.835,-1.98 1.728,1.728 0 0 0 -0.9,-1.67 6.306,6.306 0 0 0 -2.82,-0.476 7.513,7.513 0 0 0 -0.971,0.068 z"
       id="path16"
       style="fill:#595959;fill-opacity:1" />
    <path
       class="cls-1"
       d="m 407.767,63.525 -1.184,-3.285 h -5.553 l -1.13,3.285 h -3.2 l 6.46,-16.426 h 1.26 l 6.516,16.426 z m -3.972,-11.471 -1.946,5.984 h 3.894 z"
       id="path18"
       style="fill:#595959;fill-opacity:1" />
    <path
       class="cls-1"
       d="M 412.655,63.525 V 47.32 h 2.876 v 13.65 h 7.323 v 2.555 z"
       id="path20"
       style="fill:#595959;fill-opacity:1" />
    <path
       class="cls-1"
       d="m 434.756,63.525 h -3.6 V 47.331 q 3.44,-0.122 4.325,-0.122 a 7.586,7.586 0 0 1 5.614,2.074 7.441,7.441 0 0 1 2.074,5.5 q 0.005,8.742 -8.413,8.742 z M 434.037,49.842 V 60.9 q 0.7,0.066 1.5,0.066 a 4.087,4.087 0 0 0 3.413,-1.582 7.04,7.04 0 0 0 1.233,-4.425 q 0,-5.2 -4.833,-5.2 -0.462,0.006 -1.313,0.083 z"
       id="path22"
       style="fill:#595959;fill-opacity:1" />
    <path
       class="cls-1"
       d="m 448.593,49.875 v 3.794 h 5.355 v 2.445 h -5.355 v 4.856 h 7.346 v 2.555 H 445.718 V 47.32 h 10.342 v 2.555 z"
       id="path24"
       style="fill:#595959;fill-opacity:1" />
    <path
       class="cls-1"
       d="m 327.968,89.814 1.062,-2.578 a 5.834,5.834 0 0 0 3.352,1.195 q 2.534,0 2.533,-1.77 a 2.5,2.5 0 0 0 -0.6,-1.581 7.656,7.656 0 0 0 -2.461,-1.687 11.823,11.823 0 0 1 -2.511,-1.538 4.122,4.122 0 0 1 -1,-1.433 4.705,4.705 0 0 1 -0.343,-1.836 4.015,4.015 0 0 1 1.378,-3.119 5.085,5.085 0 0 1 3.534,-1.239 6.588,6.588 0 0 1 4.125,1.051 l -0.874,2.478 a 5.4,5.4 0 0 0 -3.2,-1.084 2.14,2.14 0 0 0 -1.544,0.526 1.81,1.81 0 0 0 -0.547,1.366 q 0,1.394 3.085,2.9 a 10.079,10.079 0 0 1 2.345,1.466 4.513,4.513 0 0 1 1.1,1.559 5.066,5.066 0 0 1 0.376,1.985 4.005,4.005 0 0 1 -1.554,3.241 6.378,6.378 0 0 1 -4.165,1.272 7.414,7.414 0 0 1 -4.091,-1.174 z"
       id="path26"
       style="fill:#595959;fill-opacity:1" />
    <path
       class="cls-1"
       d="m 343.2,77.06 v 3.794 h 5.355 V 83.3 H 343.2 v 4.856 h 7.346 V 90.71 H 340.324 V 74.5 h 10.342 v 2.56 z"
       id="path28"
       style="fill:#595959;fill-opacity:1" />
    <path
       class="cls-1"
       d="m 362.347,90.71 -4.325,-6.692 q -0.652,-0.011 -1.825,-0.078 v 6.77 h -2.986 V 74.5 q 0.244,0 1.869,-0.083 1.625,-0.083 2.622,-0.083 6.173,0 6.172,4.779 a 4.387,4.387 0 0 1 -0.851,2.621 4.6,4.6 0 0 1 -2.147,1.67 l 4.79,7.3 z M 356.2,77 v 4.5 c 0.532,0.044 0.936,0.066 1.218,0.066 a 5.246,5.246 0 0 0 2.638,-0.508 2.132,2.132 0 0 0 0.835,-1.98 1.728,1.728 0 0 0 -0.9,-1.67 6.306,6.306 0 0 0 -2.82,-0.476 A 7.513,7.513 0 0 0 356.2,77 Z"
       id="path30"
       style="fill:#595959;fill-opacity:1" />
    <path
       class="cls-1"
       d="m 372.27,90.931 h -1.582 L 364.627,74.5 h 3.164 l 3.75,10.951 L 375.5,74.5 h 3.1 z"
       id="path32"
       style="fill:#595959;fill-opacity:1" />
    <path
       class="cls-1"
       d="M 380.367,90.71 V 74.5 h 2.876 v 16.2 z"
       id="path34"
       style="fill:#595959;fill-opacity:1" />
    <path
       class="cls-1"
       d="m 397.723,75.367 -1.183,2.379 a 4.248,4.248 0 0 0 -3.1,-0.963 4,4 0 0 0 -3.318,1.7 6.887,6.887 0 0 0 -1.294,4.3 6.5,6.5 0 0 0 1.2,4.126 3.866,3.866 0 0 0 3.2,1.526 4.313,4.313 0 0 0 3.584,-1.637 l 1.339,2.323 a 6.74,6.74 0 0 1 -5.151,1.865 6.52,6.52 0 0 1 -5.277,-2.235 9.171,9.171 0 0 1 -1.881,-6.095 8.879,8.879 0 0 1 2.086,-6.012 6.732,6.732 0 0 1 5.337,-2.417 7.786,7.786 0 0 1 4.458,1.14 z m -7.068,20.044 -0.454,-1.4 a 3.025,3.025 0 0 0 0.775,0.1 q 1.449,0 1.449,-1.007 a 1.27,1.27 0 0 0 -0.227,-0.708 0.968,0.968 0 0 0 -0.57,-0.431 l 0.94,-0.985 a 2.172,2.172 0 0 1 1.991,2.29 1.982,1.982 0 0 1 -0.785,1.665 3.248,3.248 0 0 1 -2.035,0.6 4.76,4.76 0 0 1 -1.084,-0.124 z"
       id="path36"
       style="fill:#595959;fill-opacity:1" />
    <path
       class="cls-1"
       d="m 399.7,82.469 a 9.138,9.138 0 0 1 1.9,-5.857 6.14,6.14 0 0 1 5.071,-2.395 6.631,6.631 0 0 1 5.343,2.168 9.1,9.1 0 0 1 1.847,6.084 9.366,9.366 0 0 1 -1.93,6.216 6.756,6.756 0 0 1 -5.48,2.3 5.926,5.926 0 0 1 -5.006,-2.279 10.042,10.042 0 0 1 -1.745,-6.237 z m 2.987,0 a 8.411,8.411 0 0 0 0.962,4.4 3.1,3.1 0 0 0 2.8,1.559 3.847,3.847 0 0 0 3.291,-1.526 7.367,7.367 0 0 0 1.133,-4.436 q 0,-5.7 -4.2,-5.7 a 3.337,3.337 0 0 0 -2.953,1.543 7.389,7.389 0 0 0 -1.031,4.16 z"
       id="path38"
       style="fill:#595959;fill-opacity:1" />
    <path
       class="cls-1"
       d="m 415.63,89.814 1.062,-2.578 a 5.834,5.834 0 0 0 3.352,1.195 q 2.534,0 2.533,-1.77 a 2.5,2.5 0 0 0 -0.6,-1.581 7.656,7.656 0 0 0 -2.461,-1.687 11.823,11.823 0 0 1 -2.511,-1.538 4.122,4.122 0 0 1 -1,-1.433 4.705,4.705 0 0 1 -0.348,-1.836 4.015,4.015 0 0 1 1.378,-3.119 5.085,5.085 0 0 1 3.534,-1.239 6.588,6.588 0 0 1 4.125,1.051 l -0.874,2.478 a 5.4,5.4 0 0 0 -3.2,-1.084 2.14,2.14 0 0 0 -1.544,0.526 1.81,1.81 0 0 0 -0.547,1.366 q 0,1.394 3.085,2.9 a 10.079,10.079 0 0 1 2.345,1.466 4.513,4.513 0 0 1 1.1,1.559 5.066,5.066 0 0 1 0.376,1.985 4.005,4.005 0 0 1 -1.554,3.241 6.378,6.378 0 0 1 -4.165,1.272 7.414,7.414 0 0 1 -4.086,-1.174 z"
       id="path40"
       style="fill:#595959;fill-opacity:1" />
    <path
       class="cls-1"
       d="m 438.406,90.71 h -3.6 V 74.516 q 3.44,-0.122 4.325,-0.122 a 7.586,7.586 0 0 1 5.614,2.074 7.441,7.441 0 0 1 2.074,5.5 q 0.006,8.741 -8.413,8.742 z m -0.719,-13.683 v 11.061 q 0.7,0.066 1.5,0.066 a 4.087,4.087 0 0 0 3.413,-1.582 7.04,7.04 0 0 0 1.233,-4.425 q 0,-5.2 -4.833,-5.2 -0.461,0.002 -1.313,0.079 z"
       id="path42"
       style="fill:#595959;fill-opacity:1" />
    <path
       class="cls-1"
       d="m 452.244,77.06 v 3.794 H 457.6 V 83.3 h -5.355 v 4.856 h 7.346 V 90.71 H 449.368 V 74.5 h 10.342 v 2.56 z"
       id="path44"
       style="fill:#595959;fill-opacity:1" />
    <path
       class="cls-1"
       d="m 475.263,77.06 v 13.65 h -2.877 V 77.06 h -5.154 V 74.5 h 13.418 v 2.56 z"
       id="path46"
       style="fill:#595959;fill-opacity:1" />
    <path
       class="cls-1"
       d="M 482.586,90.71 V 74.5 h 2.876 v 16.2 z"
       id="path48"
       style="fill:#595959;fill-opacity:1" />
    <path
       class="cls-1"
       d="m 499.941,75.367 -1.183,2.379 a 4.248,4.248 0 0 0 -3.1,-0.963 4,4 0 0 0 -3.318,1.7 6.887,6.887 0 0 0 -1.294,4.3 6.5,6.5 0 0 0 1.2,4.126 3.866,3.866 0 0 0 3.2,1.526 4.313,4.313 0 0 0 3.584,-1.637 l 1.339,2.323 a 6.74,6.74 0 0 1 -5.154,1.87 6.52,6.52 0 0 1 -5.277,-2.235 9.171,9.171 0 0 1 -1.881,-6.095 8.879,8.879 0 0 1 2.086,-6.012 6.732,6.732 0 0 1 5.337,-2.417 7.786,7.786 0 0 1 4.461,1.135 z"
       id="path50"
       style="fill:#595959;fill-opacity:1" />
  </g>
  <g
     class="cls-2"
     id="g54"
     style="opacity:1;fill:#595959;fill-opacity:0.2">
    <path
       class="cls-1"
       d="m 305.314,47.266 c 0.206,4 0.3,8.007 0.383,12.011 0.083,4.004 0.075,8.007 0.117,12.011 -0.039,4 -0.035,8.007 -0.115,12.011 l -0.139,6.006 c -0.083,2 -0.132,4 -0.245,6.006 -0.113,-2 -0.162,-4 -0.245,-6.006 l -0.139,-6.006 c -0.08,-4 -0.076,-8.007 -0.115,-12.011 0.042,-4 0.034,-8.007 0.117,-12.011 0.083,-4.004 0.175,-8.008 0.381,-12.011 z"
       id="path52"
       style="fill:#595959;fill-opacity:0.2" />
  </g>
  <g
     id="g2972"
     transform="matrix(0.21034644,0,0,0.21034644,9.1177686,-51.022337)"
     style="stroke-width:4.75406">
    <path
       class="cls-1"
       d="m 144.29545,414.50429 c -47.070936,0 -97.746118,3.81661 -143.54484743,14.41698 4.02831503,72.08493 0.21169824,217.1036 33.50074243,256.11455 -4.240686,0.63577 -8.266312,1.2722 -12.509686,2.12034 C -2.2178772,647.72115 -4.9773469,549.77005 -7.0943293,474.08424 -7.7327843,454.151 -8.1548367,435.91807 -9.0029737,420.44125 v 0 C 41.036441,408.78037 92.983829,404.54036 144.29343,404.54036 c 51.09925,0 103.25901,4.24001 153.08606,15.90089 h 0.21169 c -0.84813,15.47682 -1.4839,33.70975 -1.90797,53.63963 -2.12034,75.68917 -4.87645,173.64027 -28.83599,213.07528 -4.24068,-0.84814 -8.48137,-1.48457 -12.50968,-2.12034 33.28904,-39.01095 29.26005,-184.02962 33.28904,-256.11455 -45.58636,-10.60104 -96.26221,-14.41698 -143.33315,-14.41698 z"
       id="path2262"
       style="opacity:1;fill:#000000;fill-opacity:1;stroke-width:4.75406" />
    <path
       class="cls-1"
       d="m 168.89075,379.7347 c -7.20916,-1.90797 -16.1146,-2.54441 -24.59732,-2.54441 -8.48271,0 -17.38681,0.63577 -24.59732,2.54441 -10.17764,-6.57273 -11.23748,-18.65767 -0.21237,-23.53412 8.05731,-1.27154 16.75037,-2.33204 24.80768,-2.33204 8.0573,0 16.53867,1.0605 24.80767,2.33204 10.81341,4.87712 9.96527,16.96139 -0.21237,23.53412 z"
       id="path2264"
       style="opacity:1;fill:#000000;fill-opacity:1;stroke-width:4.75406" />
    <path
       class="cls-1"
       d="m 38.706417,469.20442 c -7.420864,-25.01735 15.266467,-40.0701 30.108194,-41.12994 41.133979,-2.96848 65.093509,7.20849 110.679869,9.96528 16.75037,0 33.50074,-0.63644 50.46349,-7.63324 -3.81662,11.87325 -56.18808,21.20141 -77.81557,21.41378 a 138.73358,138.73358 0 0 1 -22.89903,-1.69627 c -4.66476,-0.63577 -73.786582,-11.23681 -71.66624,11.02511 0.211699,2.11967 2.755438,2.11967 3.604247,1.69627 12.722056,-5.08882 21.841882,-9.11714 34.985318,-9.54322 26.503945,-1.05916 44.738225,6.99747 73.786585,1.06051 -20.14494,13.14545 -72.092327,8.69307 -82.482342,11.66155 -10.601714,3.18017 -19.294782,9.11713 -28.835989,11.66087 -15.478165,4.45239 -19.294782,-6.78778 -19.931221,-8.48137 z"
       id="path2266"
       style="opacity:1;fill:#000000;fill-opacity:1;stroke-width:4.75406" />
    <path
       class="cls-1"
       d="m 61.603429,530.05322 c 2.120343,-4.24069 4.876452,-8.69307 8.481371,-11.66088 6.148658,-4.87712 13.781891,7.63256 6.148658,10.60104 -4.452384,1.48391 -9.753577,1.27154 -14.630029,1.06051 z"
       id="path2268"
       style="opacity:1;fill:#000000;fill-opacity:1;stroke-width:4.75406" />
    <path
       class="cls-1"
       d="m 39.551865,539.59375 a 58.262043,58.262043 0 0 0 -11.873919,-4.87712 68.301244,68.301244 0 0 0 10.813412,-4.45239 c -4.028315,-3.18017 -8.266312,-6.78442 -12.933754,-8.05663 -6.996795,-2.11967 -8.693069,9.32884 -4.028315,12.29866 -5.300521,2.33272 -4.452384,13.35715 1.907972,13.56953 -2.120343,3.18085 1.483904,10.17697 5.93696,7.84425 3.392548,-1.69627 6.996794,-6.14865 8.266312,-8.05663 a 57.278823,57.278823 0 0 0 -8.693069,-1.4839 75.581648,75.581648 0 0 0 10.601713,-6.78442 z"
       id="path2270"
       style="opacity:1;fill:#000000;fill-opacity:1;stroke-width:4.75406" />
    <path
       class="cls-1"
       d="m 59.271388,680.16004 c 18.870714,-3.18085 26.928016,-6.36036 38.589565,-11.44851 12.509687,-4.66475 22.687327,-10.38934 35.197017,-17.80953 a 52.581138,52.581138 0 0 1 -28.20022,-10.60104 c -9.753579,-7.2085 -15.478168,-16.32563 -16.750373,-21.83852 a 44.768465,44.768465 0 0 1 -6.994107,16.74969 c -4.240685,5.72459 -11.661549,17.80954 -19.083084,10.17698 -3.604247,-2.33204 -13.781891,2.75543 -19.718851,1.4839 -11.661549,-2.75544 -11.44985,9.54322 -4.876452,12.72138 -5.510875,3.81662 -3.180178,13.56953 4.240685,14.41699 -2.332041,3.60358 3.180178,9.96393 9.329508,7.84426 2.755438,-1.06051 5.088823,-1.06051 8.266312,-1.69627 z"
       id="path2272"
       style="opacity:1;fill:#000000;fill-opacity:1;stroke-width:4.75406" />
    <path
       class="cls-1"
       d="m 68.388526,585.81252 a 66.486688,66.486688 0 0 1 7.633233,4.66475 c 0.212371,0.21237 0.424069,0.21237 0.635767,0.42474 a 28.653861,28.653861 0 0 1 4.028315,-8.48137 21.98167,21.98167 0 0 1 5.300521,-5.51087 c 0.635767,-3.18018 1.483904,-5.72392 1.907972,-8.05596 0.635767,-2.33271 3.816617,-7.20849 6.148658,-9.54322 -1.059835,-0.63577 -3.180178,-0.63577 -4.664754,-0.84814 -5.724589,-0.84814 -14.20596,-3.18018 -17.598508,-5.30052 -0.635767,5.30052 -1.059835,10.81274 -1.696274,16.11326 -0.635767,5.51087 -1.272206,10.81274 -1.696274,16.53666 z"
       id="path2274"
       style="opacity:1;fill:#000000;fill-opacity:1;stroke-width:4.75406" />
    <path
       class="cls-1"
       d="m 71.992772,482.13751 c 4.876452,2.54441 8.693069,4.87578 8.693069,12.50901 -0.211698,4.87578 -4.876452,12.08427 -8.693069,13.56818 H 26.407757 c -3.816617,-1.48391 -8.481371,-8.6924 -8.481371,-13.56818 -0.21237,-7.63323 3.816617,-9.96527 8.481371,-12.50901 z"
       id="path2276"
       style="opacity:1;fill:#000000;fill-opacity:1;stroke-width:4.75406" />
    <path
       class="cls-1"
       d="m 238.64902,682.06734 a 44.33902,44.33902 0 0 0 13.57019,-13.78055 50.846557,50.846557 0 0 0 8.0573,-26.92734 c 0,-7.84561 -1.05983,-16.11326 -2.12034,-24.59732 -1.4839,-11.02175 -23.53547,-63.60491 -28.62429,-73.78121 -3.81662,-7.84426 -11.02578,-21.62615 -10.38934,-27.56243 0.42407,-12.93241 11.02578,-20.56498 23.95953,-20.56498 7.20917,0.21237 15.26647,5.30052 19.29479,11.87325 3.18017,5.30052 3.60424,12.29866 2.12034,20.77734 l -0.2117,0.21237 c -13.35782,12.50902 -10.60171,21.41378 -5.93696,37.10298 2.75544,9.54322 6.36103,21.41378 7.42086,37.95043 1.48391,-13.56817 2.75544,-26.92532 3.81662,-40.28248 1.27221,-14.20528 2.96848,-21.20141 4.02832,-35.61906 v 0 c 0.42406,-10.1763 -1.27221,-20.35328 -6.57273,-27.35276 -5.72459,-7.63256 -14.41833,-12.72138 -25.44344,-12.29866 -25.86751,1.27221 -38.37451,23.32041 -27.13971,44.73486 8.48137,16.32563 19.29478,43.25096 26.07987,60.42473 6.7851,17.17377 9.96528,32.01482 3.81662,37.73874 0,0.21237 -0.2117,0.21237 -0.42407,0 -6.36102,-8.6924 -15.47816,-11.87258 -25.01937,-15.0541 -11.23748,-4.02764 -23.53547,-9.11579 -31.59277,-22.68531 -1.69627,3.39187 -4.87645,6.57272 -8.0573,9.11713 -4.66475,3.39188 -13.35782,7.84426 -16.53867,8.6924 -0.21237,0 -0.42407,-0.21237 -0.21237,-0.42474 0.21237,-0.84814 0.63576,-1.69627 0.84813,-2.54441 0.42407,-1.06051 0.42407,-2.11967 0.42407,-3.81662 -2.96848,2.75544 -4.24068,2.96848 -9.32951,5.72459 -11.87391,6.14866 -24.3836,11.87325 -23.3204,24.59396 1.4839,14.41699 18.02257,18.2336 36.25752,19.50514 10.60171,0.63576 21.20275,1.2722 29.68412,4.45238 0,-1.4839 1.05984,-4.24001 2.54442,-6.78442 a 9.5277648,9.5277648 0 0 1 4.66475,-4.45239 c 0,-0.21237 0.42407,0 0.2117,0.21237 -1.90797,3.81595 -2.96848,10.60104 -2.75544,13.99292 0.42407,18.02056 23.53547,19.9292 36.89598,21.41311 z"
       id="path2278"
       style="opacity:1;fill:#000000;fill-opacity:1;stroke-width:4.75406" />
    <path
       class="cls-1"
       d="m 87.046869,606.8029 a 0.66264909,0.66264909 0 0 1 1.272206,0 62.904619,62.904619 0 0 0 19.931225,30.1082 51.226941,51.226941 0 0 0 27.98785,11.6602 24.530113,24.530113 0 0 1 -6.14866,-5.51087 18.248388,18.248388 0 0 1 -4.24069,-10.60104 c -0.21169,-4.02899 1.05984,-8.48138 4.45239,-13.14546 4.24068,-5.51087 11.87392,-11.23681 24.17123,-16.32496 a 41.708585,41.708585 0 0 0 9.11714,-5.93628 c 3.39255,-2.96848 6.57273,-7.2085 6.99679,-12.93376 0,-0.63576 1.05984,-0.63576 1.27221,0 a 20.521288,20.521288 0 0 1 0.84814,8.05663 29.08465,29.08465 0 0 1 -1.48391,7.2085 c 6.36103,-3.39188 11.02579,-9.54323 14.41833,-16.11326 6.14866,-12.08428 7.84494,-26.07585 7.84494,-30.31788 a 0.812518,0.812518 0 0 1 1.2722,-0.42474 12.271105,12.271105 0 0 1 2.54441,2.96848 c 0,0.21102 0.2117,0.42339 0.42407,0.63577 a 68.275034,68.275034 0 0 0 -2.54441,-21.41379 c -2.12034,-7.20849 -5.72459,-13.99291 -10.81341,-20.98904 a 0.71574166,0.71574166 0 0 1 0.63576,-1.0605 10.931694,10.931694 0 0 1 2.33205,0.42474 4.666098,4.666098 0 0 0 1.05983,0.63576 c -3.81662,-9.11713 -8.69307,-14.84105 -14.63003,-21.62615 a 16.167025,16.167025 0 0 0 -1.90797,-1.9073 c 0,-0.21237 -0.2117,-0.42474 0,-0.63644 0.42407,-1.9073 0.63577,-2.9678 1.4839,-3.81594 0.42407,-0.84814 1.27221,-1.48458 2.75544,-2.54441 -1.90797,-1.90797 -6.57272,-3.60425 -11.66155,-4.66476 -6.78778,-1.4839 -14.41833,-1.90797 -18.23494,-1.4839 a 18.245028,18.245028 0 0 1 2.75543,9.54322 19.615354,19.615354 0 0 1 -2.54441,10.60104 c -0.42407,0.63577 -1.4839,0.21103 -1.2722,-0.42474 a 47.471482,47.471482 0 0 0 0.63576,-9.11579 15.06821,15.06821 0 0 0 -3.81661,-10.38934 c -11.44985,-1.27154 -27.98786,5.08882 -38.37451,8.90476 -0.63577,0.42474 -1.05984,0.42474 -1.27221,0.63577 a 24.903778,24.903778 0 0 1 -0.21169,5.72459 c -0.42407,3.60425 -0.63577,6.78442 3.81661,10.38867 2.54441,-4.66341 6.14866,-5.08815 9.75358,-3.60425 a 21.169824,21.169824 0 0 1 6.57273,5.08883 c 1.90797,2.33204 3.39254,4.66341 3.81661,6.57205 0.42407,1.69627 0,3.18085 -1.4839,3.60425 a 0.73926369,0.73926369 0 0 0 -0.42407,0.21237 18.441941,18.441941 0 0 1 -4.87645,0 c -1.90797,-0.21237 -4.02832,-0.84814 -5.08882,-1.90797 a 4.4355821,4.4355821 0 0 1 -0.84814,-1.27221 c 0,-0.21103 -0.21237,-0.4234 -0.21237,-0.63577 a 2.6882316,2.6882316 0 0 0 -0.21237,1.27221 16.102507,16.102507 0 0 0 1.2722,5.51087 7.5337691,7.5337691 0 0 0 2.33204,3.39322 1.7917064,1.7917064 0 0 1 1.27221,-0.42474 35.373768,35.373768 0 0 1 6.57273,-1.90797 v 0 a 40.818781,40.818781 0 0 1 5.08882,0.21237 c 5.93696,0.21237 11.87392,0.21237 15.47816,-1.2722 3.39255,-1.69628 4.45239,-4.87578 1.05984,-11.87258 -0.2117,-0.63577 0.84814,-1.06051 1.27221,-0.63577 6.36102,8.05596 3.60424,12.93241 0,15.6892 a 22.531413,22.531413 0 0 1 -5.08748,2.5397 6.3220487,6.3220487 0 0 1 2.54441,3.60425 9.2300432,9.2300432 0 0 1 -0.63577,4.66475 11.357779,11.357779 0 0 1 -1.05983,2.33204 0.73926369,0.73926369 0 0 1 -0.42407,0.21237 c -8.26631,2.96781 -23.95954,9.75291 -35.61907,18.23293 -6.996796,5.30053 -12.722057,11.02511 -14.418332,16.9614 a 23.104679,23.104679 0 0 1 5.300521,-2.12034 23.919885,23.919885 0 0 1 8.057301,-0.63577 c 0.63577,0 0.63577,1.06051 0.21237,1.27221 a 22.539478,22.539478 0 0 0 -5.30052,1.9073 c -6.996794,3.39322 -13.78189,8.90477 -17.809533,16.32563 -4.240686,7.42086 -5.72459,16.74903 -2.120343,27.56244 a 55.214933,55.214933 0 0 0 2.120343,5.30052 55.894383,55.894383 0 0 0 2.120342,-6.36036 c 0.635767,-2.12034 1.272206,-4.02898 1.907973,-5.93629 z m 38.589561,-120.42471 0.2117,-0.21237 h 0.21237 v -0.21237 h 0.21237 v -0.21103 h 0.2117 v -0.21237 h 0.21237 v -0.21237 h 0.21237 l 0.2117,-0.21237 h 0.21237 v -0.21102 h 0.21237 l 0.2117,-0.21237 h 0.21237 v -0.21237 h 0.42407 v -0.21237 h 0.42407 v -0.21103 h 0.42406 c 0,-0.21237 0,-0.21237 0.2117,-0.21237 h 0.21237 l 0.21237,-0.21237 h 0.42407 a 0.20766589,0.20766589 0 0 0 0.21237,-0.21237 h 0.63577 v -0.21103 h 1.2722 v -0.21237 h 2.119 v 0.21237 h 1.05984 l 0.21237,0.21103 h 0.2117 v 0.21237 h -0.2117 v 0.21237 0 0.21237 0 0.21103 h -0.21237 v 0.21237 0 0.21237 h -0.21237 v 0.21237 0 0.21102 h -0.2117 v 0.21237 0 0.21237 h -0.21237 v 0.21237 h -0.21237 v 0.21103 h -0.21103 v 0.21237 h -0.21237 v 0.21237 h -0.84813 l -0.2117,0.21237 h -1.90797 v 0.21103 h -2.54442 v -0.21103 h -2.75543 v -0.21237 h -0.42407 z"
       id="path2280"
       style="opacity:1;fill:#000000;fill-opacity:1;stroke-width:4.75406" />
    <path
       class="cls-1"
       d="m 112.91505,509.06351 c -2.54441,0.21237 -4.87645,1.0605 -6.99679,1.69627 -5.936964,1.90797 -10.813416,3.39322 -14.630033,-3.60425 0,-0.21102 0,-0.21102 0.21237,-0.21102 5.510875,3.81594 11.661553,1.90797 17.174443,0.21102 4.66475,-1.4839 8.90544,-2.75543 11.87392,-0.42339 0.21237,0.21237 0.21237,0.21237 0,0.21237 0,0.21102 -1.05984,0.42339 -2.33205,0.63576 -1.90797,0.4234 -4.24068,0.84814 -5.30052,1.48391 z"
       id="path2282"
       style="opacity:1;fill:#000000;fill-opacity:1;stroke-width:4.75406" />
    <path
       class="cls-1"
       d="m 60.331224,641.35945 8.693069,-107.70467 c -2.332041,0.21237 -4.664754,0 -6.996795,0 H 61.8158 a 4.0121857,4.0121857 0 0 1 -3.180178,-5.51088 52.554928,52.554928 0 0 1 3.816616,-6.57272 23.679288,23.679288 0 0 1 5.300521,-5.93629 6.5276984,6.5276984 0 0 1 2.96848,-1.48391 v -1.9073 l -42.193811,-0.21237 0.635766,7.84426 c 4.028315,1.90798 7.633234,4.87713 11.025782,7.63257 v 0 c 0.211699,0 0.211699,0 0.424069,0.21237 v 0.21237 c 1.907972,1.4839 1.696274,4.66475 -0.424069,5.51087 a 0.78025922,0.78025922 0 0 1 -0.635766,0.21103 l -1.272206,0.63644 c -0.424069,-0.42475 -1.059835,-0.84814 -1.696274,-1.48458 v 0 c 0,0.21237 0.848137,0.84814 1.696274,1.48458 a 1.612939,1.612939 0 0 1 -0.848137,0.42339 v 0.21237 a 5.2501163,5.2501163 0 0 1 1.907972,0.84814 10.438403,10.438403 0 0 1 1.483904,0.63577 v 0 c 2.544411,1.2722 2.96848,4.66475 1.059835,6.14865 -1.059835,0.63644 -2.120342,1.48458 -3.180178,2.12035 2.120343,0.84813 3.180178,3.81661 1.907973,5.51087 a 38.258912,38.258912 0 0 1 -5.93696,6.57206 c -0.635766,0.42474 -1.059835,0.84813 -1.696274,1.2722 a 4.6371995,4.6371995 0 0 1 -1.059835,0.63577 l 0.211698,0.42474 v 0 1.69627 c 1.483904,23.95752 4.240685,56.18404 6.148658,82.25989 a 13.749633,13.749633 0 0 1 4.028315,0.4234 c 5.088822,1.2722 13.781891,-2.75544 18.022577,-2.11967 z M 40.612373,527.72051 v 0.21237 c 8.057302,6.36035 -0.635767,-0.63577 0,-0.21237 z m -10.813412,0 0.21237,2.33271 a 7.5270485,7.5270485 0 0 0 1.907301,-0.84881 12.856468,12.856468 0 0 1 -2.120343,-1.4839 z m 0.848137,11.4485 v 1.90797 c 0.635767,-0.21237 1.059836,-0.63576 1.696274,-0.84813 a 0.20766589,0.20766589 0 0 1 0.211699,-0.21237 c -0.635767,-0.21237 -1.272206,-0.63577 -1.907973,-0.84814 m 7.633234,-4.87578 v 0 c 1.696274,1.27153 3.180178,2.54441 0,0 z m 31.380399,-7.63323 0.212371,-2.96781 a 16.17845,16.17845 0 0 0 -1.696274,2.33204 c -0.211699,0.21237 -0.424069,0.42474 -0.424069,0.63577 h 1.907972"
       id="path2284"
       style="opacity:1;fill:#000000;fill-opacity:1;stroke-width:4.75406" />
    <path
       class="cls-1"
       d="m 73.05328,383.33895 c -7.209165,-1.69628 -16.114605,-2.12035 -24.597319,-1.90798 -8.481371,0.4234 -17.38681,1.48391 -24.383605,3.60425 -10.601714,-6.36036 -11.873919,-18.2336 -1.059835,-23.53412 a 195.17099,195.17099 0 0 1 24.597319,-3.18018 162.3161,162.3161 0 0 1 24.807673,1.4839 c 11.23748,4.45239 10.813412,16.538 0.635767,23.53413 z"
       id="path2286"
       style="opacity:1;fill:#000000;fill-opacity:1;stroke-width:4.75406" />
    <path
       class="cls-1"
       d="m 144.29545,382.06607 c -8.48137,0 -17.38681,1.06051 -24.17123,3.18018 v 11.44985 c 8.0573,-0.21237 16.1146,-0.42474 24.17123,-0.42474 8.05663,0 16.1146,0.21237 24.17123,0.42474 v -11.44985 c -6.99679,-2.11967 -15.90223,-3.18018 -24.17123,-3.18018 z"
       id="path2288"
       style="opacity:1;fill:#000000;fill-opacity:1;stroke-width:4.75406" />
    <path
       class="cls-1"
       d="m 48.669675,386.51845 c -8.481371,0.21237 -17.17444,1.48391 -24.171234,3.81662 0,0.63577 0.424068,7.84426 0.635766,14.62868 15.902234,-2.54441 32.016839,-4.45238 48.130771,-5.72391 -0.21237,-5.08883 -0.21237,-10.17698 -0.21237,-10.60104 a 90.969757,90.969757 0 0 0 -24.383605,-2.12035 z"
       id="path2290"
       style="opacity:1;fill:#000000;fill-opacity:1;stroke-width:4.75406" />
    <path
       class="cls-2"
       d="m -26.81318,702.20959 c 119.373612,-26.71431 248.07606,-20.35328 342.42963,0 l -5.72459,33.28635 c 6.57273,1.27221 13.78189,2.75544 20.77869,4.24002 l -9.54323,46.21943 c -12.50968,-3.39187 -50.88755,-10.17697 -65.09351,-10.81274 l 47.07094,-12.72138 v -0.84814 c -92.4456,-19.29344 -208.85006,-24.16922 -318.891476,0.42474 v 0.4234 l 47.282633,12.72138 c -13.781891,0.63577 -52.583826,7.42087 -65.30521,10.81274 l -9.54255,-46.21943 q 11.44985,-2.54106 22.263262,-4.45239 z m 28.6236179,39.43434 -12.9337539,-22.68532 5.3005203,-1.0605 10.1776448,17.59716 3.3925483,-19.9292 3.3925486,-0.63644 -4.2406857,25.86616 z m 16.9627411,-3.18018 -3.392548,-24.59732 5.088822,-0.63577 3.392549,24.59396 z m 11.23748,-2.12034 -2.968479,-24.38159 8.908799,-1.27221 c 1.907973,-0.21237 3.392548,-0.21237 4.452384,0.21237 a 5.7857465,5.7857465 0 0 1 2.544411,1.90798 7.1762343,7.1762343 0 0 1 1.272206,3.18017 10.778465,10.778465 0 0 1 -0.848137,4.24002 8.4988442,8.4988442 0 0 1 -2.96848,3.18085 l 9.117137,10.60104 -6.148657,0.84814 -7.209166,-9.32884 -2.755437,0.21237 1.266829,10.17428 z m 2.96848,-13.99292 h 1.272206 c 2.120342,-0.21237 3.392548,-1.06051 4.028315,-1.90797 a 3.9765666,3.9765666 0 0 0 0.848137,-3.39188 2.1290794,2.1290794 0 0 0 -1.272206,-2.12034 c -0.635766,-0.63577 -1.907972,-0.84814 -4.028315,-0.4234 l -1.696274,0.21103 z m 25.867509,10.60104 -1.907973,-21.41378 -8.48137,0.84814 -0.424069,-3.39188 22.47496,-1.90797 0.212371,3.39187 -8.693069,0.63644 1.907972,21.41311 z m 15.266467,-26.07585 5.088822,-0.42339 1.059836,15.05409 c 0.21237,2.75544 0.848137,4.66476 1.696274,5.30053 a 4.3535911,4.3535911 0 0 0 3.604246,1.0605 3.9537166,3.9537166 0 0 0 3.392549,-1.48457 c 0.848137,-0.84814 1.059835,-2.54441 0.848137,-5.08815 l -1.059836,-15.47682 4.452384,-0.42475 1.059835,15.26513 c 0.212371,2.75544 0,4.87578 -0.635766,6.14866 a 7.0955873,7.0955873 0 0 1 -2.96848,3.18017 10.205199,10.205199 0 0 1 -4.876452,1.48458 19.073675,19.073675 0 0 1 -5.300521,-0.63644 9.1332669,9.1332669 0 0 1 -3.604247,-2.75544 c -0.848137,-1.27153 -1.483903,-3.39187 -1.696274,-6.14865 z m 25.44344,22.47429 -0.21237,-4.24001 c 1.907975,0.63577 3.392545,1.06051 4.240685,1.27153 a 11.194468,11.194468 0 0 0 2.54441,0.21237 c 1.48391,-0.21237 2.54441,-0.42339 3.18018,-1.0605 a 3.9107049,3.9107049 0 0 0 1.05983,-2.54442 2.4079835,2.4079835 0 0 0 -0.63576,-1.69627 c -0.42407,-0.63577 -1.48391,-1.27221 -2.96848,-2.12034 l -1.69628,-0.84814 c -2.33204,-1.27153 -4.02831,-2.33204 -4.87645,-3.39188 a 9.2898564,9.2898564 0 0 1 -1.483902,-4.02764 7.0774417,7.0774417 0 0 1 1.907972,-4.87712 8.9571877,8.9571877 0 0 1 6.14866,-2.11967 40.073468,40.073468 0 0 1 6.57272,0.63576 v 4.02765 a 19.900979,19.900979 0 0 0 -5.93696,-1.27154 4.7178465,4.7178465 0 0 0 -2.75543,0.84814 2.7211624,2.7211624 0 0 0 -0.84814,2.12034 2.2910454,2.2910454 0 0 0 0.63577,1.48391 11.659533,11.659533 0 0 0 2.96848,1.90797 l 1.69627,1.05916 c 2.75544,1.27221 4.45238,2.54509 5.30052,3.81662 a 10.443108,10.443108 0 0 1 1.27221,3.60425 7.0310697,7.0310697 0 0 1 -2.12035,5.30052 c -1.4839,1.4839 -3.81661,2.33204 -7.20916,2.54441 a 42.551346,42.551346 0 0 1 -6.787785,-0.63577 m 31.168705,-0.84814 -0.42407,-24.80565 h 5.08882 l 0.42407,24.80565 z m 11.23748,0 v -24.5953 h 6.57272 l 5.93696,17.38479 5.93696,-17.38479 h 5.93696 v 24.59396 h -4.66475 v -18.65767 l -5.93696,17.17377 h -4.02832 l -5.72459,-17.38614 v 18.86937 z m 30.53226,0.63577 0.84814,-24.80566 8.26631,0.21237 c 2.54441,0.21237 4.24068,0.42474 5.08882,1.06051 a 3.8515638,3.8515638 0 0 1 2.12034,2.33204 4.5128688,4.5128688 0 0 1 0.63577,3.39188 7.8274584,7.8274584 0 0 1 -2.75544,6.36035 q -2.54441,1.90865 -6.99679,1.90798 h -1.90797 l -0.42407,9.54322 z m 5.30052,-12.93241 h 1.05983 c 1.69628,0 3.18018,-0.42474 4.02832,-1.27221 a 4.5088365,4.5088365 0 0 0 1.4839,-3.18017 6.1909974,6.1909974 0 0 0 -0.42407,-1.90798 1.9126768,1.9126768 0 0 0 -1.2722,-1.2722 q -0.63577,-0.6351 -2.54441,-0.63577 h -2.12034 z m 12.50969,13.78055 10.81341,-24.16922 5.08882,0.21103 8.0573,25.23039 -5.08882,-0.21237 -2.11564,-6.78577 -10.17764,-0.63643 -2.75544,6.57272 z m 8.0573,-9.54322 7.42086,0.42474 -3.18018,-9.96528 z m 25.44344,11.66087 -6.78779,-25.44142 5.30052,0.42339 5.30052,19.71751 8.48137,-18.4453 3.60425,0.4234 -10.80266,23.74716 z m 17.17444,2.33204 2.54441,-24.59396 5.08882,0.42474 -2.54441,24.59396 z m 11.02578,1.06051 3.39255,-24.38159 10.38934,1.48391 a 12.520439,12.520439 0 0 1 6.36103,2.11967 12.182394,12.182394 0 0 1 3.18018,4.66475 13.312123,13.312123 0 0 1 0.42406,6.57273 20.448034,20.448034 0 0 1 -2.12034,6.36035 16.033957,16.033957 0 0 1 -4.45238,4.02764 c -1.90797,0.84814 -4.24069,1.06051 -7.20917,0.63577 z m 5.51087,-2.75544 3.81662,0.63577 c 1.90797,0.21237 3.39255,0.21237 4.66475,-0.4234 1.05984,-0.42474 1.90798,-1.2722 2.75544,-2.75543 a 11.189764,11.189764 0 0 0 1.69628,-4.66476 12.220029,12.220029 0 0 0 -0.2117,-4.87578 6.2393855,6.2393855 0 0 0 -2.12035,-3.39187 c -0.84813,-0.84814 -2.54441,-1.48458 -5.08882,-1.69628 l -2.96848,-0.42474 z m 18.23495,6.57273 13.1515,-22.89769 5.08882,0.63577 5.51088,26.07585 -5.08882,-0.84814 -1.48391,-6.99612 -9.96527,-1.48391 -3.60425,6.14866 z m 8.90544,-8.69307 7.42086,1.27221 -2.12034,-10.38868 z"
       id="path2292"
       style="opacity:1;stroke-width:4.75406" />
    <path
       class="cls-2"
       d="m 115.88353,341.35952 c -4.24069,-3.39187 -7.20917,-7.84426 -7.42086,-13.56818 0,-6.78778 5.72459,-13.14545 9.11713,-18.86936 20.77869,-27.77549 32.65261,-40.49553 17.81021,-66.36169 4.66475,0.84814 11.66155,7.20849 15.26647,11.87325 6.57272,10.81206 6.99679,22.26124 2.96848,34.98195 -4.45239,10.38868 -18.44665,23.53346 -13.99426,35.61907 4.02831,11.23681 18.65901,12.08428 13.99426,0.4234 -2.54441,-6.14866 -5.51088,-6.78442 -3.60425,-13.78055 2.96848,-11.4485 17.80954,-25.86616 11.23748,-39.43568 15.0541,8.26631 5.93696,31.16668 7.20917,35.195 0.84813,3.39187 12.29866,13.56817 11.44985,20.35327 -2.12035,16.96073 -21.84189,23.32041 -35.83346,22.47294 -5.51087,0 -19.50715,-2.12034 -28.20022,-8.90476 z"
       id="path2294"
       style="opacity:1;stroke-width:4.75406" />
    <path
       class="cls-2"
       d="m 49.093743,354.716 c -8.48137,0 -35.409386,-4.87578 -35.619068,-22.68531 0,-6.57273 5.510875,-12.93376 8.905439,-18.65768 20.991056,-27.77413 32.863631,-40.49484 18.022577,-66.36101 4.664754,0.63577 11.661548,7.20849 15.266467,11.87325 6.361028,10.81207 6.996795,22.26124 2.755437,34.77026 -4.240685,10.60104 -18.446645,23.74582 -13.994261,35.83076 4.240685,11.23681 18.659015,12.08428 13.994261,0.21103 -2.332041,-6.14866 -5.510874,-6.57205 -3.604246,-13.78055 3.180178,-11.2368 18.022577,-25.65379 11.44985,-39.43434 14.842399,8.48003 5.724589,31.37771 7.209165,35.4067 0.635767,3.39188 12.29866,13.56818 11.449851,20.3526 -2.120343,16.7497 -21.841882,23.32041 -35.833455,22.47429 z"
       id="path2296"
       style="opacity:1;stroke-width:4.75406" />
    <path
       class="cls-2"
       d="m 239.28546,354.716 c -8.48137,0 -35.61907,-4.87578 -35.61907,-22.68531 -0.21237,-6.57273 5.51087,-12.93376 8.90544,-18.65768 20.99105,-27.77413 32.86363,-40.49484 18.02257,-66.36101 4.45239,0.63577 11.66155,7.20849 15.26647,11.87325 6.36103,10.81207 6.9968,22.26124 2.75544,34.77026 -4.24069,10.60104 -18.44665,23.74582 -13.99426,35.83076 4.24068,11.23681 18.65901,12.08428 13.99426,0.21103 -2.54441,-6.14866 -5.51088,-6.57205 -3.60425,-13.78055 3.18018,-11.2368 17.80954,-25.65379 11.44985,-39.43434 14.8424,8.48003 5.72459,31.37771 7.20917,35.4067 0.63576,3.39188 12.29866,13.56818 11.44985,20.3526 -2.12034,16.7497 -21.84188,23.32041 -35.83346,22.47429 z"
       id="path2298"
       style="opacity:1;stroke-width:4.75406" />
    <path
       class="cls-1"
       d="m 215.53762,383.33895 c 7.20916,-1.69628 15.90223,-2.12035 24.59732,-1.90798 8.48137,0.4234 17.17444,1.48391 24.3836,3.60425 10.38935,-6.36036 11.87392,-18.2336 1.05984,-23.53412 a 193.51571,193.51571 0 0 0 -24.80767,-3.18018 163.93441,163.93441 0 0 0 -24.80768,1.4839 c -11.02578,4.45239 -10.60171,16.538 -0.42407,23.53413 z"
       id="path2300"
       style="opacity:1;fill:#000000;fill-opacity:1;stroke-width:4.75406" />
    <path
       class="cls-1"
       d="m 239.92055,386.51845 c 8.26631,0.21237 17.17444,1.48391 24.17124,3.81662 -0.21237,0.63577 -0.42407,7.42019 -0.63577,13.99292 -15.90223,-2.54441 -32.01684,-4.24002 -48.13077,-5.72459 0,-4.66341 0.21237,-9.54322 0.21237,-9.96393 a 89.415287,89.415287 0 0 1 24.3836,-2.12035 z"
       id="path2302"
       style="opacity:1;fill:#000000;fill-opacity:1;stroke-width:4.75406" />
    <path
       class="cls-1"
       d="m 144.29545,793.58795 v 0 l -0.21237,-0.42339 c -7.84493,-12.08562 -8.69307,-23.53413 -9.54322,-34.34619 v -4.87713 h 19.50715 v 4.87713 c -0.84814,10.81206 -1.69627,22.26124 -9.54322,34.34619 z"
       id="path2304"
       style="opacity:1;fill:#000000;fill-opacity:1;stroke-width:4.75406" />
    <path
       class="cls-1"
       d="m 62.239196,798.25204 v 0 l -0.424069,-0.42474 c -8.057302,-11.87258 -9.329507,-23.10871 -10.601713,-33.92213 0,-0.21237 0,-2.12034 -0.21237,-4.66475 6.572726,-0.84814 12.933754,-1.4839 19.507152,-2.12034 0.212371,3.18085 0.212371,5.72459 0.212371,6.14933 -0.424069,10.81206 -1.059836,22.26124 -8.266312,34.55789 z"
       id="path2306"
       style="opacity:1;fill:#000000;fill-opacity:1;stroke-width:4.75406" />
    <path
       class="cls-1"
       d="m 226.35103,798.25204 v 0 l -0.21237,-0.42474 c -7.42086,-12.29866 -7.84493,-23.74583 -8.26631,-34.55789 0,-0.42474 0,-2.75544 0.2117,-5.72459 6.36102,0.42474 12.93375,1.2722 19.29478,1.90797 0,2.33204 0,4.24001 -0.2117,4.45238 -1.05983,10.81274 -2.33204,22.04955 -10.60171,33.92213 z"
       id="path2308"
       style="opacity:1;fill:#000000;fill-opacity:1;stroke-width:4.75406" />
    <path
       class="cls-1"
       d="M 9.2319733,835.56738 H 24.074372 v 56.39574 c 0,4.66475 1.272206,8.26631 4.028315,11.02175 2.756109,2.75544 6.571382,4.24068 11.449178,4.24068 5.300521,0 9.543223,-1.48457 12.29866,-4.24068 3.180178,-2.75544 4.664754,-6.35969 4.664754,-11.23681 v -56.18404 h 14.630028 v 57.45625 c 0,8.48002 -2.755437,15.26445 -8.48137,20.14157 -5.72459,4.66475 -13.570194,7.20849 -23.1114,7.20849 -9.541206,0 -17.174439,-2.33271 -22.47496,-7.20849 -5.089494,-4.65938 -7.8456037,-11.44716 -7.8456037,-20.35058 z m 93.9294967,13.14478 v 19.50514 h 29.26006 v 12.50901 h -29.26006 v 38.16214 H 88.319075 v -83.32107 h 54.915865 v 13.14478 z m 68.062,39.64671 v 30.52958 h -14.83972 v -83.32107 c 9.75358,-0.42474 15.69054,-0.63644 17.38681,-0.63644 13.14613,0 22.68734,2.12034 28.83599,6.14866 6.14866,4.02831 9.11714,10.17697 9.11714,18.86937 0,19.08107 -11.23748,28.62227 -33.92481,28.62227 -1.4839,0 -3.81662,0 -6.57273,-0.21237 z m 0,-40.07145 v 26.7143 a 33.386492,33.386492 0 0 0 5.93695,0.42474 c 6.78779,0 11.66155,-1.06051 14.8424,-3.39322 2.96848,-2.11967 4.66476,-5.93629 4.66476,-11.02175 0,-8.48137 -6.9968,-12.93241 -20.99106,-12.93241 -1.4839,0 -2.96848,0.21103 -4.45238,0.21103 z m 68.4827,0.42474 v 19.50514 h 27.56714 v 12.50901 h -27.56378 v 25.02072 h 37.74142 v 13.14478 h -52.5845 v -83.32443 h 53.22027 v 13.14478 z"
       id="path2310"
       style="opacity:1;fill:#000000;fill-opacity:1;stroke-width:4.75406" />
    <path
       class="cls-3"
       d="m 901.61868,522.72712 c -1.77087,1.70568 -4.52564,2.82264 -8.26631,2.82264 -3.60761,0 -6.36305,-0.98389 -8.19911,-2.82264 -2.1647,-2.1647 -2.88649,-4.85428 -2.88649,-9.84028 h 5.64193 c 0,3.08341 0.32796,4.78909 1.57463,6.10095 a 5.9860197,5.9860197 0 0 0 7.87181,-0.0672 c 1.24667,-1.37772 1.50877,-3.14926 1.50877,-6.23199 0,-5.37647 -0.78698,-7.01898 -4.5915,-8.59361 l -5.31396,-2.1647 c -4.78841,-1.96778 -6.36304,-4.59217 -6.36304,-11.677 0,-4.0673 1.1808,-7.4128 3.54242,-9.5775 a 10.570799,10.570799 0 0 1 7.41279,-2.68823 c 3.41137,0 5.96989,0.98389 7.74144,2.68823 2.36161,2.29642 3.08273,5.31396 3.08273,9.5775 h -5.64193 c 0,-2.49267 -0.2621,-4.19835 -1.44291,-5.64193 a 4.5988922,4.5988922 0 0 0 -3.80452,-1.57463 4.71247,4.71247 0 0 0 -3.6076,1.44291 c -1.11495,1.24599 -1.63982,3.14926 -1.63982,5.57808 0,4.59217 0.72111,5.96989 4.46112,7.54385 l 5.2481,2.1647 c 5.31329,2.1647 6.55995,5.44367 6.55995,12.79195 0,4.85494 -0.66063,7.93835 -2.8885,10.16891 z"
       id="path2312"
       style="stroke-width:4.75406" />
    <path
       class="cls-3"
       d="m 929.69457,522.5302 a 10.844326,10.844326 0 0 1 -7.80595,3.08273 10.691769,10.691769 0 0 1 -7.74144,-3.08273 c -1.90259,-1.90259 -3.01754,-4.65803 -3.01754,-8.06872 v -36.08011 h 5.64193 v 36.40807 c 0,3.67347 2.29642,5.7723 5.11705,5.7723 2.82062,0 5.18224,-2.0995 5.18224,-5.7723 v -36.40807 h 5.64192 v 36.08011 c -6.7e-4,3.41069 -1.11561,6.16613 -3.01821,8.06872 z"
       id="path2314"
       style="stroke-width:4.75406" />
    <path
       class="cls-3"
       d="m 951.20916,505.60375 h -4.85495 v 19.48296 h -5.64192 v -46.70802 h 10.4962 c 7.08416,0 11.08895,3.27964 11.08895,13.64277 0,10.2388 -4.1345,13.58229 -11.08828,13.58229 z m -0.19691,-22.17253 h -4.65804 v 17.12134 h 4.65804 c 3.80452,0 5.64192,-2.29642 5.64192,-8.52774 0,-6.29651 -1.83673,-8.59226 -5.64192,-8.59226 z"
       id="path2316"
       style="stroke-width:4.75406" />
    <path
       class="cls-3"
       d="M 969.24719,525.08873 V 478.3807 h 18.04005 v 5.05119 h -12.39812 v 15.67844 h 10.69244 v 5.05119 h -10.69244 v 15.87535 h 12.39812 v 5.05118 z"
       id="path2318"
       style="stroke-width:4.75406" />
    <path
       class="cls-3"
       d="m 1011.2952,525.08873 -6.4289,-20.0737 h -5.04988 v 20.0737 h -5.64529 V 478.3807 h 10.56137 c 7.0849,0 11.0218,3.08273 11.0218,13.31683 0,6.4941 -1.5747,10.29929 -5.642,12.20121 l 7.1501,21.18864 z m -6.4948,-41.6555 h -4.98398 v 16.59983 h 4.98528 c 4.3294,0 5.314,-3.3455 5.314,-8.33351 0,-4.98802 -0.9859,-8.26699 -5.3153,-8.26699 z"
       id="path2320"
       style="stroke-width:4.75406" />
    <path
       class="cls-3"
       d="M 1024.0186,525.08873 V 478.3807 h 5.6419 v 46.70803 z"
       id="path2322"
       style="stroke-width:4.75406" />
    <path
       class="cls-3"
       d="m 1055.8331,525.08873 -12.0701,-31.94695 v 31.94695 h -5.6393 V 478.3807 h 5.2481 l 11.9398,31.94695 v -31.94628 h 5.6419 v 46.70803 z"
       id="path2324"
       style="stroke-width:4.75406" />
    <path
       class="cls-3"
       d="m 1080.1025,483.43256 v 41.65549 h -5.642 v -41.65549 h -7.8718 v -5.05119 h 21.3204 v 5.05119 z"
       id="path2326"
       style="stroke-width:4.75406" />
    <path
       class="cls-3"
       d="M 1093.4838,525.08873 V 478.3807 h 18.0401 v 5.05119 h -12.3982 v 15.67844 h 10.6925 v 5.05119 h -10.6925 v 15.87535 h 12.3982 v 5.05118 z"
       id="path2328"
       style="stroke-width:4.75406" />
    <path
       class="cls-3"
       d="m 1136.1212,525.08873 -12.0702,-31.94695 v 31.94695 h -5.6419 V 478.3807 h 5.2481 l 11.9398,31.94695 v -31.94628 h 5.6419 v 46.70803 z"
       id="path2330"
       style="stroke-width:4.75406" />
    <path
       class="cls-3"
       d="m 1168.4599,521.80841 c -1.7056,1.9026 -4.1983,3.27964 -8.0035,3.27964 h -10.7583 v -46.70802 h 10.7583 c 3.8052,0 6.2979,1.37772 8.0035,3.27964 3.0169,3.21446 3.3455,7.4128 3.3455,20.0737 0,12.6609 -0.3286,16.86059 -3.3455,20.07504 z m -4.1983,-36.60498 a 4.9282006,4.9282006 0 0 0 -4.0021,-1.77087 h -4.9195 v 36.60431 h 4.9195 a 4.9288726,4.9288726 0 0 0 4.0021,-1.77088 c 1.7709,-2.16469 1.9019,-5.77297 1.9019,-16.53262 0,-10.75965 -0.131,-14.36456 -1.9019,-16.52926 z"
       id="path2332"
       style="stroke-width:4.75406" />
    <path
       class="cls-3"
       d="M 1179.0858,525.08873 V 478.3807 h 18.0401 v 5.05119 h -12.3981 v 15.67844 h 10.6924 v 5.05119 h -10.6924 v 15.87535 h 12.3981 v 5.05118 z m 13.1858,-49.987 -3.9362,-5.70711 -3.9356,5.70711 h -4.3294 l 6.101,-8.8557 h 4.3294 l 6.1002,8.8557 z"
       id="path2334"
       style="stroke-width:4.75406" />
    <path
       class="cls-3"
       d="m 1221.7232,525.08873 -12.0701,-31.94695 v 31.94695 h -5.642 V 478.3807 h 5.2481 l 11.9398,31.94695 v -31.94628 h 5.6386 v 46.70803 z"
       id="path2336"
       style="stroke-width:4.75406" />
    <path
       class="cls-3"
       d="m 1252.8153,523.05508 a 10.288534,10.288534 0 0 1 -7.2152,2.55852 c -3.6742,0 -6.232,-1.37771 -8.0035,-3.41136 -3.0828,-3.54242 -3.4107,-7.54385 -3.4107,-20.46753 0,-12.92367 0.3279,-16.92443 3.4107,-20.46685 1.7715,-2.03364 4.3293,-3.41136 8.0035,-3.41136 3.2796,0 5.5781,0.98389 7.4121,2.75543 2.1654,2.09951 3.2803,5.44367 3.3462,9.24954 h -5.5781 c -0.067,-1.96779 -0.3938,-3.93557 -1.5088,-5.31329 a 4.4517115,4.4517115 0 0 0 -3.6734,-1.63982 4.5699937,4.5699937 0 0 0 -3.8711,1.77154 c -1.6391,2.23056 -1.9019,5.96922 -1.9019,17.05549 0,11.08626 0.2628,14.82559 1.9019,17.05615 a 4.5699937,4.5699937 0 0 0 3.8711,1.77088 4.4517115,4.4517115 0 0 0 3.6734,-1.63982 c 1.0498,-1.37772 1.443,-3.41137 1.5088,-5.37647 h 5.5781 c -0.067,3.93289 -1.2467,7.40944 -3.5431,9.50895 z"
       id="path2338"
       style="stroke-width:4.75406" />
    <path
       class="cls-3"
       d="M 1263.0467,525.08873 V 478.3807 h 5.6419 v 46.70803 z"
       id="path2340"
       style="stroke-width:4.75406" />
    <path
       class="cls-3"
       d="m 1294.4681,525.08873 -2.2306,-11.02175 h -10.8234 l -2.2299,11.02175 h -5.9074 l 10.8873,-46.70803 h 5.4437 l 10.8235,46.70803 z m -7.6097,-37.58887 -4.3953,21.5166 h 8.7247 z"
       id="path2342"
       style="stroke-width:4.75406" />
    <path
       class="cls-3"
       d="m 902.7343,600.52454 c -1.70569,1.90259 -4.19835,3.27964 -8.00354,3.27964 h -10.7583 v -46.70802 h 10.7583 c 3.80519,0 6.29785,1.37771 8.00354,3.27964 3.01686,3.21445 3.3455,7.4128 3.3455,20.0737 0,12.6609 -0.32796,16.86058 -3.3455,20.07504 z m -4.19835,-36.60498 a 4.9288726,4.9288726 0 0 0 -4.00211,-1.77087 h -4.91946 v 36.60229 h 4.91946 a 4.9288726,4.9288726 0 0 0 4.00211,-1.77088 c 1.77087,-2.16469 1.90192,-5.77297 1.90192,-16.53262 0,-10.75965 -0.13105,-14.36322 -1.90058,-16.52792 z"
       id="path2344"
       style="stroke-width:4.75406" />
    <path
       class="cls-3"
       d="m 913.35953,603.80418 v -46.70802 h 18.0414 v 5.05118 h -12.39947 v 15.67844 h 10.69244 v 5.05119 h -10.69244 v 15.87401 h 12.39947 v 5.05118 z"
       id="path2346"
       style="stroke-width:4.75406" />
    <path
       class="cls-3"
       d="m 961.24433,562.14869 v 41.65549 h -5.64193 v -41.65549 h -7.87047 v -5.05119 h 21.32037 v 5.05119 z"
       id="path2348"
       style="stroke-width:4.75406" />
    <path
       class="cls-3"
       d="m 974.625,603.80418 v -46.70802 h 18.04005 v 5.05118 h -12.39812 v 15.67844 h 10.69244 v 5.05119 h -10.69244 v 15.87401 h 12.39812 v 5.05118 z"
       id="path2350"
       style="stroke-width:4.75406" />
    <path
       class="cls-3"
       d="m 1017.0661,601.77053 a 10.288534,10.288534 0 0 1 -7.2152,2.55853 c -3.6741,0 -6.232,-1.37772 -8.0035,-3.41137 -3.08275,-3.54242 -3.41072,-7.54385 -3.41072,-20.46752 0,-12.92368 0.32797,-16.92444 3.41072,-20.46685 1.7715,-2.03365 4.3294,-3.41137 8.0035,-3.41137 3.2797,0 5.5781,0.98389 7.4121,2.75544 2.1654,2.09951 3.2804,5.44367 3.3462,9.24953 h -5.5781 c -0.067,-1.96778 -0.3938,-3.93557 -1.5087,-5.31329 a 4.4517115,4.4517115 0 0 0 -3.6735,-1.63982 4.5699937,4.5699937 0 0 0 -3.8711,1.77154 c -1.6391,2.23057 -1.9019,5.96922 -1.9019,17.05549 0,11.08627 0.2628,14.8256 1.9019,17.05616 a 4.5699937,4.5699937 0 0 0 3.8711,1.77087 4.4523836,4.4523836 0 0 0 3.6735,-1.63982 c 1.0497,-1.37772 1.4429,-3.41137 1.5087,-5.37646 h 5.5781 c -0.067,3.93557 -1.2466,7.41011 -3.5431,9.50894 z"
       id="path2352"
       style="stroke-width:4.75406" />
    <path
       class="cls-3"
       d="m 1045.0096,603.80418 -12.0701,-31.94694 v 31.94694 h -5.642 v -46.70802 h 5.2481 l 11.9398,31.94694 v -31.9456 h 5.6419 v 46.70802 z"
       id="path2354"
       style="stroke-width:4.75406" />
    <path
       class="cls-3"
       d="m 1076.8887,600.91769 a 11.094332,11.094332 0 0 1 -16.0064,0 c -3.0169,-3.3455 -3.4107,-7.54385 -3.4107,-20.46752 0,-12.92368 0.3938,-17.12135 3.4107,-20.46685 a 11.09366,11.09366 0 0 1 16.0064,0 c 3.0175,3.3455 3.4107,7.54385 3.4107,20.46685 0,12.923 -0.3932,17.12202 -3.4107,20.46752 z m -4.1984,-37.52301 a 4.4416307,4.4416307 0 0 0 -3.8045,-1.77154 4.5699937,4.5699937 0 0 0 -3.871,1.77154 c -1.6392,2.23056 -1.902,5.96922 -1.902,17.05549 0,11.08627 0.2628,14.8256 1.902,17.05616 a 4.5699937,4.5699937 0 0 0 3.871,1.77087 4.4423027,4.4423027 0 0 0 3.8045,-1.77087 c 1.6399,-2.23056 1.9685,-5.96922 1.9685,-17.05616 0,-11.08694 -0.328,-14.82493 -1.9685,-17.05549 z"
       id="path2356"
       style="stroke-width:4.75406" />
    <path
       class="cls-3"
       d="m 1087.5791,603.80418 v -46.70802 h 5.6419 v 41.65482 h 12.3982 v 5.05118 z"
       id="path2358"
       style="stroke-width:4.75406" />
    <path
       class="cls-3"
       d="m 1128.25,600.91769 a 11.094332,11.094332 0 0 1 -16.0064,0 c -3.0168,-3.3455 -3.4107,-7.54385 -3.4107,-20.46752 0,-12.92368 0.3939,-17.12135 3.4107,-20.46685 a 11.09366,11.09366 0 0 1 16.0064,0 c 3.0176,3.3455 3.4107,7.54385 3.4107,20.46685 0,12.923 -0.3898,17.12202 -3.4107,20.46752 z m -4.1983,-37.52301 a 4.4416307,4.4416307 0 0 0 -3.8045,-1.77154 4.5699937,4.5699937 0 0 0 -3.8711,1.77154 c -1.6391,2.23056 -1.9019,5.96922 -1.9019,17.05549 0,11.08627 0.2628,14.8256 1.9019,17.05616 a 4.5699937,4.5699937 0 0 0 3.8711,1.77087 4.4423027,4.4423027 0 0 0 3.8045,-1.77087 c 1.6398,-2.23056 1.9685,-5.96922 1.9685,-17.05616 0,-11.08694 -0.3273,-14.82493 -1.9685,-17.05549 z"
       id="path2360"
       style="stroke-width:4.75406" />
    <path
       class="cls-3"
       d="m 1149.567,604.32906 a 10.282486,10.282486 0 0 1 -8.0035,-3.41137 c -3.0169,-3.3455 -3.4107,-7.54385 -3.4107,-20.46752 0,-12.92368 0.3938,-17.12135 3.4107,-20.46685 a 11.19178,11.19178 0 0 1 15.5474,-0.52488 c 2.1654,2.1647 3.1493,5.44367 3.2145,9.18434 h -5.5781 c -0.067,-3.14859 -0.8529,-7.01897 -5.1823,-7.01897 a 4.5699937,4.5699937 0 0 0 -3.871,1.77154 c -1.6392,2.23057 -1.9019,5.96922 -1.9019,17.05549 0,11.08627 0.2627,14.8256 1.9019,17.05616 a 4.5699937,4.5699937 0 0 0 3.871,1.77087 c 3.2797,0 5.1823,-2.68823 5.1823,-6.4941 v -9.38125 h -5.1823 v -4.65736 h 10.8235 v 13.84439 c -0.063,7.80394 -4.7219,11.73951 -10.8215,11.73951 z"
       id="path2362"
       style="stroke-width:4.75406" />
    <path
       class="cls-3"
       d="m 1167.7361,603.80418 v -46.70802 h 5.642 v 46.70802 z"
       id="path2364"
       style="stroke-width:4.75406" />
    <path
       class="cls-3"
       d="m 1199.1575,603.80418 -2.2305,-11.02175 h -10.8235 l -2.2299,11.02175 h -5.904 l 10.8873,-46.70802 h 5.4437 l 10.8235,46.70802 z m -7.6097,-37.58887 -4.3952,21.51661 h 8.7246 z"
       id="path2366"
       style="stroke-width:4.75406" />
    <path
       class="cls-3"
       d="m 1240.682,600.52454 c -1.7057,1.90259 -4.1984,3.27964 -8.0036,3.27964 h -10.7583 v -46.70802 h 10.7583 c 3.8052,0 6.2979,1.37771 8.0036,3.27964 3.0168,3.21445 3.3455,7.4128 3.3455,20.0737 0,12.6609 -0.3313,16.86058 -3.3455,20.07504 z m -4.1984,-36.60498 a 4.9288726,4.9288726 0 0 0 -4.0021,-1.77087 h -4.9194 v 36.60229 h 4.9194 a 4.9288726,4.9288726 0 0 0 4.0021,-1.77088 c 1.7709,-2.16469 1.9019,-5.77297 1.9019,-16.53262 0,-10.75965 -0.1337,-14.36322 -1.9046,-16.52792 z"
       id="path2368"
       style="stroke-width:4.75406" />
    <path
       class="cls-3"
       d="m 1268.2962,603.80418 -2.2306,-11.02175 h -10.8235 l -2.2299,11.02175 h -5.904 l 10.8873,-46.70802 h 5.4437 l 10.8235,46.70802 z m -7.6098,-37.58887 -4.3952,21.51661 h 8.7246 z"
       id="path2370"
       style="stroke-width:4.75406" />
    <path
       class="cls-3"
       d="m 883.97246,682.51963 v -46.70802 h 5.64192 v 46.70802 z"
       id="path2372"
       style="stroke-width:4.75406" />
    <path
       class="cls-3"
       d="m 915.787,682.51963 -12.07016,-31.94694 v 31.94694 h -5.64192 v -46.70802 h 5.2481 l 11.93978,31.94694 v -31.9456 h 5.64192 v 46.70803 z"
       id="path2374"
       style="stroke-width:4.75406" />
    <path
       class="cls-3"
       d="m 935.00584,640.86414 v 15.67844 h 10.69244 v 5.05119 h -10.69244 v 20.92654 h -5.64192 v -46.70803 h 18.04005 v 5.05119 z"
       id="path2376"
       style="stroke-width:4.75406" />
    <path
       class="cls-3"
       d="m 971.93811,679.63315 a 11.094332,11.094332 0 0 1 -16.0064,0 c -3.01687,-3.34551 -3.41069,-7.54385 -3.41069,-20.46753 0,-12.92367 0.39382,-17.12135 3.41069,-20.46685 a 11.09366,11.09366 0 0 1 16.0064,0 c 3.01754,3.3455 3.4107,7.54385 3.4107,20.46685 0,12.923 -0.39316,17.12202 -3.4107,20.46753 z m -4.19834,-37.52301 a 4.4416307,4.4416307 0 0 0 -3.80452,-1.77155 4.5699937,4.5699937 0 0 0 -3.87106,1.77155 c -1.63914,2.23056 -1.90192,5.96921 -1.90192,17.05548 0,11.08627 0.26278,14.8256 1.90192,17.05616 a 4.5699937,4.5699937 0 0 0 3.87106,1.77087 4.4423027,4.4423027 0 0 0 3.80452,-1.77087 c 1.63982,-2.23056 1.96846,-5.96922 1.96846,-17.05616 0,-11.08694 -0.32864,-14.82492 -1.96846,-17.05548 z"
       id="path2378"
       style="stroke-width:4.75406" />
    <path
       class="cls-3"
       d="m 999.74921,682.51963 -6.4289,-20.07369 h -5.05119 v 20.07369 h -5.64193 v -46.70802 h 10.56139 c 7.08482,0 11.02172,3.08273 11.02172,13.31683 0,6.49409 -1.5746,10.29928 -5.64189,12.20121 l 7.14999,21.18864 z m -6.49476,-41.65549 h -4.98533 v 16.59983 h 4.98533 c 4.32939,0 5.31396,-3.3455 5.31396,-8.33352 0,-4.98801 -0.98322,-8.26631 -5.31262,-8.26631 z"
       id="path2380"
       style="stroke-width:4.75406" />
    <path
       class="cls-3"
       d="m 1036.287,682.51963 v -33.2588 l -7.4128,21.84188 h -3.4766 l -7.2817,-21.31969 v 32.7346 h -5.6419 v -46.70803 h 5.3132 l 9.4492,25.98042 9.3812,-25.97773 h 5.3133 v 46.70803 z"
       id="path2382"
       style="stroke-width:4.75406" />
    <path
       class="cls-3"
       d="m 1067.7064,682.51963 -2.2306,-11.02175 h -10.8235 l -2.2299,11.02175 h -5.904 l 10.8873,-46.70802 h 5.4437 l 10.8235,46.70802 z m -7.6097,-37.58887 -4.3953,21.51661 h 8.7246 z"
       id="path2384"
       style="stroke-width:4.75406" />
    <path
       class="cls-3"
       d="m 1096.0423,680.48599 a 10.288534,10.288534 0 0 1 -7.2152,2.55852 c -3.6741,0 -6.232,-1.37772 -8.0035,-3.41136 -3.0827,-3.54242 -3.4107,-7.54385 -3.4107,-20.46753 0,-12.92367 0.328,-16.92443 3.4107,-20.46685 1.7715,-2.03365 4.3294,-3.41137 8.0035,-3.41137 3.2797,0 5.5781,0.9839 7.4122,2.75544 2.1653,2.09951 3.2803,5.44367 3.3461,9.24954 h -5.578 c -0.067,-1.96779 -0.3939,-3.93558 -1.5088,-5.31329 a 4.4517115,4.4517115 0 0 0 -3.6735,-1.63983 4.5699937,4.5699937 0 0 0 -3.871,1.77155 c -1.6392,2.23056 -1.902,5.96922 -1.902,17.05548 0,11.08627 0.2628,14.8256 1.902,17.05616 a 4.5699937,4.5699937 0 0 0 3.871,1.77087 4.4523836,4.4523836 0 0 0 3.6735,-1.63982 c 1.0497,-1.37772 1.4429,-3.41136 1.5088,-5.37646 h 5.578 c -0.066,3.93288 -1.2453,7.4128 -3.5431,9.50895 z m -8.527,13.97275 h -4.1984 l 3.7387,-9.44644 h 3.7386 z"
       id="path2386"
       style="stroke-width:4.75406" />
    <path
       class="cls-3"
       d="m 1123.9206,682.51963 -2.2305,-11.02175 h -10.8235 l -2.2299,11.02175 h -5.904 l 10.8873,-46.70802 h 5.4437 l 10.8235,46.70802 z m -4.0021,-50.64292 c -3.4107,0 -4.3945,-2.09951 -6.6251,-2.09951 -1.246,0 -2.0988,0.72179 -2.9524,1.50877 l -2.3616,-2.4268 c 1.8368,-1.90259 3.2803,-2.82264 5.1823,-2.82264 3.4772,0 4.0673,2.1647 6.6258,2.1647 1.3118,0 2.0988,-0.72179 2.8865,-1.50877 l 2.4926,2.4268 c -1.4429,1.44559 -3.0834,2.75745 -5.2481,2.75745 z m -3.6076,13.05473 -4.3952,21.5166 h 8.7246 z"
       id="path2388"
       style="stroke-width:4.75406" />
    <path
       class="cls-3"
       d="m 1153.0456,679.63315 a 11.094332,11.094332 0 0 1 -16.0064,0 c -3.0169,-3.34551 -3.4107,-7.54385 -3.4107,-20.46753 0,-12.92367 0.3938,-17.12135 3.4107,-20.46685 a 11.09366,11.09366 0 0 1 16.0064,0 c 3.0176,3.3455 3.4107,7.54385 3.4107,20.46685 0,12.923 -0.3945,17.12202 -3.4107,20.46753 z m -4.1983,-37.52301 a 4.4416307,4.4416307 0 0 0 -3.8045,-1.77155 4.5699937,4.5699937 0 0 0 -3.8711,1.77155 c -1.6391,2.23056 -1.9019,5.96921 -1.9019,17.05548 0,11.08627 0.2628,14.8256 1.9019,17.05616 a 4.5699937,4.5699937 0 0 0 3.8711,1.77087 4.4423027,4.4423027 0 0 0 3.8045,-1.77087 c 1.6398,-2.23056 1.9684,-5.96922 1.9684,-17.05616 0,-11.08694 -0.3299,-14.82492 -1.9698,-17.05548 z"
       id="path2390"
       style="stroke-width:4.75406" />
    <path
       class="cls-4"
       d="m 642.97652,624.19038 a 70.562047,70.562047 0 0 0 -3.01686,-17.10051 c -7.01494,-22.26864 -25.66589,-40.0365 -48.33239,-45.77117 -7.86846,-1.99064 -15.70465,-2.1647 -23.66786,-2.1647 l -59.37565,0.0222 a 29.067848,29.067848 0 0 1 -4.29109,-0.25001 c -9.77575,-1.4624 -18.12674,-8.36242 -20.41241,-18.20403 a 24.328496,24.328496 0 0 1 13.69788,-27.62158 c 3.82401,-1.67679 8.85907,-1.90999 13.72813,-1.90999 l 122.06117,0.035 -5.09017,-7.77101 -116.971,-0.035 c -5.71249,0 -11.70927,0.31049 -16.92175,2.59616 a 32.124368,32.124368 0 0 0 -18.07432,36.46183 c 2.94025,12.6609 13.47274,22.13289 26.83191,24.13159 a 36.500137,36.500137 0 0 0 5.44367,0.33602 l 59.37564,-0.0222 c 7.4538,0 14.72681,0.14718 21.76191,1.92746 19.83176,5.01758 36.64261,20.94267 42.82622,40.57213 a 62.520874,62.520874 0 0 1 2.67143,15.22816 l 0.0107,0.17541 0.0181,0.17474 c 0.69021,6.55861 -0.32796,14.29668 -2.86565,21.78946 a 62.021535,62.021535 0 0 1 -10.4794,19.30083 c -9.22131,11.36315 -22.47429,19.42247 -35.4524,21.5623 -7.72866,1.27288 -15.41365,1.27288 -23.55361,1.27288 H 452.82849 l 19.20137,-29.31718 c 0,0 101.95118,0.0202 103.45727,0.0121 h 0.17675 l 0.17608,-0.009 A 31.901244,31.901244 0 0 0 603.96356,616.1019 31.700971,31.700971 0 0 0 574.807,596.00938 c -6.6695,-0.0228 -67.51157,-0.0316 -68.50689,-0.0376 -3.23529,-0.0907 -5.02498,-0.14181 -6.16613,-0.26076 -13.78055,-1.43888 -32.64051,-9.42494 -44.24493,-27.52279 a 61.649887,61.649887 0 0 1 -5.06396,-56.36818 59.12295,59.12295 0 0 1 17.04406,-23.22364 62.909324,62.909324 0 0 1 26.3319,-12.96668 c 6.8691,-1.61899 14.18042,-1.61899 21.2451,-1.61899 h 93.54508 l -5.09017,-7.771 h -88.45491 c -7.76026,0 -15.39551,0.0276 -23.0274,1.82598 a 71.01703,71.01703 0 0 0 -29.50334,14.54602 67.035759,67.035759 0 0 0 -19.28806,26.28889 69.66821,69.66821 0 0 0 5.72459,63.48192 c 12.37863,19.30486 32.70166,29.25333 49.9796,31.05713 1.44358,0.15055 3.23999,0.23926 6.83281,0.34007 1.45299,0.0168 63.60424,0 68.62115,0 a 24.036151,24.036151 0 0 1 21.9568,15.1885 24.130239,24.130239 0 0 1 -21.29415,32.87641 c -1.50407,0.007 -107.61663,-0.0141 -107.61663,-0.0141 l -29.38506,44.86524 h 124.45235 c 8.39199,0 16.50037,-0.006 24.81708,-1.37637 15.65425,-2.57936 30.3293,-12.14073 40.22334,-24.33387 a 70.001551,70.001551 0 0 0 11.80402,-21.70008 c 2.64791,-7.81805 4.10157,-16.84379 3.23327,-25.09532 z"
       id="path2392"
       style="stroke-width:4.75406" />
    <path
       class="cls-5"
       d="m 813.20946,548.37419 v 140.54747 h -29.2829 V 548.37419 h 29.2829 m 7.77101,-7.77101 H 776.15421 V 696.6967 l 44.82626,-0.005 V 540.60251 Z"
       id="path2394"
       style="stroke-width:4.75406" />
    <polygon
       class="cls-5"
       points="1286.094,332.824 1219.396,332.83 1219.396,344.393 1274.532,344.388 1274.537,388.208 1219.396,388.208 1219.396,399.772 1286.101,399.771 "
       id="polygon2396"
       style="stroke-width:7.0739"
       transform="matrix(0.6720579,0,0,0.6720579,-43.351853,242.56029)" />
    <polygon
       class="cls-6"
       points="1219.396,344.393 1219.396,332.83 963.091,332.83 970.665,344.393 "
       id="polygon2398"
       style="stroke-width:7.0739"
       transform="matrix(0.6720579,0,0,0.6720579,-43.351853,242.56029)" />
    <polygon
       class="cls-6"
       points="1142.254,388.207 1142.254,664.176 1098.667,664.176 1098.673,388.214 999.363,388.208 1006.937,399.771 1087.109,399.765 1087.104,675.739 1153.817,675.739 1153.817,399.771 1219.396,399.772 1219.396,388.208 "
       id="polygon2400"
       style="stroke-width:7.0739"
       transform="matrix(0.6720579,0,0,0.6720579,-43.351853,242.56029)" />
  </g>
</svg>
